<?xml version="1.0" standalone="no"?>
<!DOCTYPE svg PUBLIC "-//W3C//DTD SVG 20010904//EN"
 "http://www.w3.org/TR/2001/REC-SVG-20010904/DTD/svg10.dtd">
<svg version="1.0" xmlns="http://www.w3.org/2000/svg"
 width="200.000000pt" height="200.000000pt" viewBox="0 0 200.000000 200.000000"
 preserveAspectRatio="xMidYMid meet">

<g transform="translate(0.000000,200.000000) scale(0.100000,-0.100000)"
fill="#000000" stroke="none">
<path d="M951 1765 c-86 -90 -127 -211 -102 -300 6 -21 9 -41 6 -43 -2 -2 -19
1 -37 7 -18 7 -70 15 -115 18 l-83 6 0 -39 c0 -70 20 -165 45 -215 14 -26 25
-51 25 -54 0 -3 -16 -5 -35 -5 -34 0 -35 -1 -35 -39 0 -37 14 -126 26 -163 5
-17 -12 -18 -255 -18 -291 0 -268 7 -255 -72 l7 -38 103 0 c57 0 104 -2 104
-5 0 -2 -32 -49 -70 -104 l-71 -100 26 -51 c14 -28 30 -48 35 -45 5 3 55 73
112 155 97 143 103 150 135 150 18 0 33 -2 33 -5 0 -2 -43 -97 -95 -211 -52
-113 -95 -211 -95 -218 0 -19 69 -81 78 -70 5 5 48 96 97 202 l89 193 17 -56
c9 -30 24 -67 33 -80 15 -24 14 -35 -24 -199 -22 -96 -40 -178 -40 -183 0 -9
90 -57 95 -51 3 3 75 312 75 320 0 3 26 -3 58 -13 31 -11 69 -21 85 -24 l27
-5 0 -170 0 -170 50 0 50 0 0 170 0 169 38 6 c20 4 57 13 81 21 31 10 47 11
51 3 4 -5 22 -76 39 -157 18 -81 36 -150 40 -154 3 -4 27 3 52 15 l46 22 -41
180 -42 180 26 50 c14 28 30 63 35 79 9 28 15 18 104 -172 51 -111 96 -202
100 -202 3 0 23 15 44 33 l38 32 -105 228 c-59 126 -106 231 -106 233 0 2 15
4 33 4 32 0 39 -8 147 -165 74 -107 120 -165 129 -163 9 2 25 21 37 42 l22 38
-85 124 -84 124 129 0 c126 0 130 1 136 23 11 40 6 75 -10 81 -9 3 -134 6
-280 6 l-264 0 11 27 c6 15 13 65 16 110 l6 83 -37 0 c-20 0 -36 2 -36 4 0 3
9 20 19 38 28 47 51 142 51 210 l0 58 -52 0 c-29 0 -80 -7 -113 -15 -33 -8
-63 -14 -67 -15 -3 0 -2 17 4 38 15 55 4 142 -27 203 -22 45 -104 147 -126
157 -3 1 -29 -22 -58 -53z m94 -123 c26 -41 30 -56 30 -118 0 -61 -4 -77 -30
-119 -16 -26 -34 -49 -40 -49 -5 -1 -25 28 -43 64 -30 56 -33 72 -29 116 7 64
51 154 76 154 3 0 20 -21 36 -48z m-220 -311 c54 -24 101 -80 120 -143 22 -76
21 -80 -22 -72 -116 20 -186 91 -207 208 l-7 38 38 -7 c21 -3 56 -14 78 -24z
m470 -8 c-18 -102 -77 -171 -167 -198 -74 -22 -79 -21 -72 18 19 104 83 179
172 203 73 20 75 19 67 -23z m-492 -287 c81 -30 134 -95 151 -188 6 -35 5 -38
-17 -38 -43 0 -114 30 -147 63 -35 34 -64 90 -74 145 -5 30 -4 32 22 32 15 -1
44 -7 65 -14z m497 1 c0 -43 -35 -122 -69 -156 -40 -40 -129 -78 -156 -67 -38
14 8 142 66 185 58 43 159 67 159 38z m-475 -316 c22 -10 55 -34 72 -54 34
-39 71 -143 57 -157 -13 -11 -111 16 -145 40 -49 35 -73 79 -94 174 -6 28 -6
28 32 21 21 -3 56 -14 78 -24z m475 16 c0 -7 -7 -37 -16 -66 -27 -91 -105
-155 -199 -163 -25 -3 -30 0 -27 17 14 106 66 176 152 205 65 23 90 25 90 7z"/>
</g>
</svg>
